<svg width="24" height="24" viewBox="0 0 24 24" fill="none" xmlns="http://www.w3.org/2000/svg">
<path d="M17 4C17 3.44772 17.4477 3 18 3V3C18.5523 3 19 3.44772 19 4V17C19 17.5523 18.5523 18 18 18V18C17.4477 18 17 17.5523 17 17V4Z" fill="#C4C4C4"/>
<path d="M11 7L16 4V17L11 14V7Z" fill="#C4C4C4"/>
<path d="M2 10.5C2 8.567 3.567 7 5.5 7H10V14H5.5C3.567 14 2 12.433 2 10.5V10.5Z" fill="#C4C4C4"/>
<path d="M6 14.5H9L9.73723 19.292C9.8754 20.1901 9.18055 21 8.27191 21V21C7.54017 21 6.91786 20.4661 6.8066 19.7429L6 14.5Z" fill="#C4C4C4"/>
<path fill-rule="evenodd" clip-rule="evenodd" d="M20 12.5C21.1046 12.5 22 11.6046 22 10.5C22 9.39543 21.1046 8.5 20 8.5V12.5Z" fill="#C4C4C4"/>
</svg>
