<svg width="24" height="24" viewBox="0 0 24 24" fill="none" xmlns="http://www.w3.org/2000/svg">
<path fill-rule="evenodd" clip-rule="evenodd" d="M10.5 18C12.0721 18 13.5312 17.5163 14.7367 16.6896L18.6426 20.5955C19.1819 21.1348 20.0562 21.1348 20.5955 20.5955C21.1348 20.0562 21.1348 19.1819 20.5955 18.6426L16.6896 14.7367C17.5163 13.5312 18 12.0721 18 10.5C18 6.35786 14.6421 3 10.5 3C6.35786 3 3 6.35786 3 10.5C3 14.6421 6.35786 18 10.5 18ZM10.5 15C12.9853 15 15 12.9853 15 10.5C15 8.01472 12.9853 6 10.5 6C8.01472 6 6 8.01472 6 10.5C6 12.9853 8.01472 15 10.5 15Z" fill="#C4C4C4"/>
</svg>
